<?xml version="1.0" encoding="iso-8859-1"?>
<!-- Uploaded to: SVG Repo, www.svgrepo.com, Generator: SVG Repo Mixer Tools -->
<svg fill="#000000" height="800px" width="800px" version="1.1" id="Layer_1" xmlns="http://www.w3.org/2000/svg" xmlns:xlink="http://www.w3.org/1999/xlink" 
	 viewBox="0 0 512 512" xml:space="preserve">
<g>
	<g>
		<path d="M509.116,189.867l-145.067-128c-1.741-1.536-3.883-2.227-6.101-2.116H307.2V8.533c0-4.719-3.823-8.533-8.533-8.533H8.533
			C3.823,0,0,3.814,0,8.533V435.2c0,4.719,3.823,8.533,8.533,8.533L128,443.742v59.725c0,4.719,3.823,8.533,8.533,8.533h366.933
			c4.71,0,8.533-3.814,8.533-8.533v-307.2C512,193.818,510.95,191.488,509.116,189.867z M366.933,87.177l113.963,100.557H366.933
			V87.177z M128,68.267v358.409l-110.933-0.009v-409.6h273.067v42.692l-152.841,0.009C132.446,59.255,128,63.292,128,68.267z
			 M494.933,494.933H145.067v-59.264c0.009-0.154,0.009-0.299,0.009-0.461V76.834l204.792-0.017v119.45
			c0,2.27,0.896,4.437,2.5,6.033c1.604,1.596,3.772,2.5,6.033,2.5h136.533V494.933z"/>
	</g>
</g>
</svg>